<svg t="1670482617379" class="icon" viewBox="0 0 1024 1024" version="1.1"
  xmlns="http://www.w3.org/2000/svg" p-id="3131" width="200" height="200">
  <path d="M687.313 634.093L546.18 236.453a36.553 36.553 0 0 0-13.432-17.723 36.549 36.549 0 0 0-21.195-6.73h-0.148a35.062 35.062 0 0 0-20.331 6.455 35.069 35.069 0 0 0-12.884 17.001L336.886 633.578c-20.158 56.796-11.438 120.094 23.327 169.322 34.765 49.229 91.5 78.619 151.767 78.619h0.603c60.141 0 116.758-29.329 151.452-78.456 34.692-49.126 43.394-112.293 23.278-168.97z m-335.8 110.797c-0.9-3.188-1.715-6.448-2.423-9.693-1.177-5.396 2.242-10.725 7.638-11.902 5.393-1.175 10.725 2.243 11.902 7.639a146.073 146.073 0 0 0 2.13 8.521c1.501 5.315-1.591 10.841-6.906 12.342-0.909 0.256-1.824 0.379-2.723 0.379-4.363-0.001-8.374-2.88-9.618-7.286zM489.01 854.893c-1 4.7-5.151 7.921-9.771 7.921a9.981 9.981 0 0 1-2.09-0.221c-50.321-10.705-93.605-44.915-115.784-91.512-2.374-4.987-0.255-10.953 4.731-13.327 4.985-2.374 10.953-0.256 13.327 4.731 19.523 41.017 57.611 71.127 101.887 80.545 5.402 1.15 8.849 6.46 7.7 11.863z" fill="#FFFFFF" p-id="3132"></path>
  <path d="M613.025 305.202c16.091-3.337 30.881-11.266 42.771-23.156 16.092-16.092 24.954-37.486 24.954-60.243v-8.969c0-6.1-2.375-11.834-6.693-16.152A22.69 22.69 0 0 0 657.915 190h-96.984a78.072 78.072 0 0 0-5.108-3.944C542.802 176.86 527.494 172 511.553 172h-0.148c-15.629 0-30.639 4.766-43.405 13.781a76.31 76.31 0 0 0-5.417 4.219h-96.499c-6.096 0-11.828 2.373-16.152 6.694a22.689 22.689 0 0 0-6.682 16.141v8.969c0 22.757 8.862 44.151 24.954 60.243 11.894 11.894 26.689 19.824 42.786 23.159L299.19 620.2c-24.498 69.023-13.899 145.949 28.349 205.775 42.25 59.827 111.2 95.545 184.441 95.545h0.603c73.115 0 141.947-35.657 184.126-95.382 42.177-59.727 52.756-136.521 28.3-205.424L613.025 305.202zM512.582 881.52h-0.603c-60.267 0-117.002-29.391-151.767-78.619-34.764-49.229-43.484-112.526-23.327-169.322L478.19 235.457a35.066 35.066 0 0 1 12.884-17.001 35.062 35.062 0 0 1 20.331-6.455h0.148c7.632 0 14.96 2.327 21.195 6.73a36.55 36.55 0 0 1 13.432 17.723l141.133 397.64c20.116 56.677 11.414 119.844-23.278 168.971-34.695 49.125-91.312 78.455-151.453 78.455z m114.93-627.758c-7.621 7.622-17.487 12.175-28.106 13.066L586.334 230h53.679c-1.631 8.952-5.93 17.191-12.501 23.762z m-231.024 0c-6.571-6.571-10.87-14.811-12.501-23.762h53.695l-13.072 36.829c-10.625-0.888-20.497-5.441-28.122-13.067z" fill="" p-id="3133"></path>
  <path d="M298.387 550.09a25.55 25.55 0 0 0 14.812-4.705 25.532 25.532 0 0 0 9.379-12.379l40.972-115.438a22.867 22.867 0 0 0-2.867-20.81 22.865 22.865 0 0 0-18.653-9.662H57.783c-6.856 0-13.303 2.67-18.151 7.519-4.848 4.849-7.518 11.294-7.518 18.15v9.608c0 34.114 13.285 66.187 37.407 90.31 17.772 17.771 39.861 29.651 63.9 34.68-0.104 5.249 1.831 10.532 5.837 14.539a19.938 19.938 0 0 0 14.144 5.859 19.94 19.94 0 0 0 14.141-5.856l2.004-2.004a19.882 19.882 0 0 0 5.368-9.812h46.809a19.902 19.902 0 0 0 5.705 11.813 19.938 19.938 0 0 0 14.144 5.859 19.94 19.94 0 0 0 14.141-5.856l2.004-2.004a19.882 19.882 0 0 0 5.368-9.812h35.301zM72.237 427.096h245.486l-29.457 82.994H159.83c-23.43 0-45.458-9.124-62.025-25.691-15.449-15.45-24.426-35.649-25.568-57.303zM984.047 394.611c-4.849-4.847-11.294-7.516-18.148-7.516H681.772a22.864 22.864 0 0 0-18.655 9.667 22.856 22.856 0 0 0-2.863 20.806L701.898 534.9a22.71 22.71 0 0 0 8.35 11.011 22.72 22.72 0 0 0 13.168 4.18h36.9a19.902 19.902 0 0 0 5.703 11.811 19.937 19.937 0 0 0 14.146 5.861 19.94 19.94 0 0 0 14.139-5.854l2.005-2.004a19.88 19.88 0 0 0 5.37-9.813h46.81a19.897 19.897 0 0 0 5.706 11.814c3.905 3.905 9.024 5.857 14.143 5.857s10.237-1.952 14.143-5.857l2.004-2.004c3.79-3.79 5.724-8.724 5.836-13.69 23.339-5.747 44.749-17.756 62.182-35.188 25.193-25.194 39.067-58.69 39.067-94.318v-3.939c-0.003-6.856-2.672-13.301-7.523-18.156z m-59.831 88.127c-17.639 17.638-41.09 27.352-66.034 27.352H735.537l-29.457-82.994h244.919c-2.311 21.013-11.618 40.476-26.783 55.642zM363.854 751.796c5.315-1.501 8.407-7.026 6.906-12.342a145.672 145.672 0 0 1-2.13-8.521c-1.177-5.396-6.509-8.813-11.902-7.639-5.396 1.178-8.815 6.507-7.638 11.902a166.135 166.135 0 0 0 2.423 9.693c1.244 4.406 5.254 7.285 9.618 7.285 0.9 0.001 1.815-0.122 2.723-0.378zM481.31 843.03c-44.275-9.418-82.364-39.528-101.887-80.545-2.374-4.987-8.342-7.105-13.327-4.731-4.987 2.374-7.105 8.34-4.731 13.327 22.179 46.597 65.463 80.807 115.784 91.512 0.702 0.149 1.401 0.221 2.09 0.221 4.62 0 8.771-3.221 9.771-7.921 1.149-5.403-2.298-10.713-7.7-11.863z" fill="" p-id="3134"></path>
</svg>
